<?xml version="1.0" encoding="utf-8"?>
<!-- Generator: Adobe Illustrator 25.2.2, SVG Export Plug-In . SVG Version: 6.00 Build 0)  -->
<svg version="1.1" id="Layer_1" xmlns="http://www.w3.org/2000/svg" xmlns:xlink="http://www.w3.org/1999/xlink" x="0px" y="0px"
	 viewBox="0 0 53 19" style="enable-background:new 0 0 53 19;" xml:space="preserve">
<style type="text/css">
	.st0{fill-rule:evenodd;clip-rule:evenodd;fill:#FFFFFF;}
</style>
<g id="Design">
	<g id="Group-15">
		<path id="Rectangle" class="st0" d="M7,2L7,2c0.6,0,1,0.4,1,1v13c0,0.6-0.4,1-1,1l0,0c-0.6,0-1-0.4-1-1V3C6,2.4,6.4,2,7,2z"/>
		<path id="Rectangle_1_" class="st0" d="M13,0L13,0c0.6,0,1,0.4,1,1v17c0,0.6-0.4,1-1,1l0,0c-0.6,0-1-0.4-1-1V1C12,0.4,12.4,0,13,0
			z"/>
		<path id="Rectangle-Copy-2" class="st0" d="M19,3L19,3c0.6,0,1,0.4,1,1v11c0,0.6-0.4,1-1,1l0,0c-0.6,0-1-0.4-1-1V4
			C18,3.4,18.4,3,19,3z"/>
		<path id="Rectangle-Copy-2_1_" class="st0" d="M26,6L26,6c0.6,0,1,0.4,1,1v5c0,0.6-0.4,1-1,1l0,0c-0.6,0-1-0.4-1-1V7
			C25,6.4,25.4,6,26,6z"/>
		<path id="Rectangle-Copy-3" class="st0" d="M33,3L33,3c0.6,0,1,0.4,1,1v11c0,0.6-0.4,1-1,1l0,0c-0.6,0-1-0.4-1-1V4
			C32,3.4,32.4,3,33,3z"/>
		<path id="Rectangle-Copy-4" class="st0" d="M39,0L39,0c0.6,0,1,0.4,1,1v17c0,0.6-0.4,1-1,1l0,0c-0.6,0-1-0.4-1-1V1
			C38,0.4,38.4,0,39,0z"/>
		<path id="Rectangle-Copy-5" class="st0" d="M46,3L46,3c0.6,0,1,0.4,1,1v11c0,0.6-0.4,1-1,1l0,0c-0.6,0-1-0.4-1-1V4
			C45,3.4,45.4,3,46,3z"/>
		<path id="Rectangle-Copy-6" class="st0" d="M52,6L52,6c0.6,0,1,0.4,1,1v5c0,0.6-0.4,1-1,1l0,0c-0.6,0-1-0.4-1-1V7
			C51,6.4,51.4,6,52,6z"/>
		<path id="Rectangle-Copy-7" class="st0" d="M1,7L1,7c0.6,0,1,0.4,1,1v5c0,0.6-0.4,1-1,1l0,0c-0.6,0-1-0.4-1-1V8C0,7.4,0.4,7,1,7z"
			/>
	</g>
</g>
</svg>
