<?xml version="1.0" encoding="utf-8"?>
<!-- Generator: Adobe Illustrator 25.2.2, SVG Export Plug-In . SVG Version: 6.00 Build 0)  -->
<svg version="1.1" id="Layer_1" xmlns="http://www.w3.org/2000/svg" xmlns:xlink="http://www.w3.org/1999/xlink" x="0px" y="0px"
	 viewBox="0 0 34 31" style="enable-background:new 0 0 34 31;" xml:space="preserve">
<style type="text/css">
	.st0{fill:#FFFFFF;}
</style>
<g id="Design">
	<g id="Desktop-HD" transform="translate(-74.000000, -213.000000)">
		<g id="Group-3" transform="translate(55.803030, 194.000000)">
			<g id="Group-2" transform="translate(0.318182, 0.000000)">
				<g id="book-open" transform="translate(18.878788, 20.000000)">
					<path class="st0" d="M16,30c-0.6,0-1-0.4-1-1c0-2.1-1.7-3.8-3.8-3.8H0c-0.6,0-1-0.4-1-1V0c0-0.6,0.4-1,1-1h9.6
						C13.7-1,17,2.3,17,6.4V29C17,29.6,16.6,30,16,30z M1,23.2h10.2c1.5,0,2.8,0.5,3.8,1.4V6.4c0-3-2.4-5.4-5.4-5.4H1V23.2z"/>
					<path class="st0" d="M16,30c-0.6,0-1-0.4-1-1V6.4C15,2.3,18.3-1,22.4-1H32c0.6,0,1,0.4,1,1v24.2c0,0.6-0.4,1-1,1H20.8
						c-2.1,0-3.8,1.7-3.8,3.8C17,29.6,16.6,30,16,30z M22.4,1c-3,0-5.4,2.4-5.4,5.4v18.2c1-0.9,2.3-1.4,3.8-1.4H31V1H22.4z"/>
				</g>
			</g>
		</g>
	</g>
</g>
</svg>
