<?xml version="1.0" encoding="utf-8"?>
<!-- Generator: Adobe Illustrator 25.2.2, SVG Export Plug-In . SVG Version: 6.00 Build 0)  -->
<svg version="1.1" id="Layer_1" xmlns="http://www.w3.org/2000/svg" xmlns:xlink="http://www.w3.org/1999/xlink" x="0px" y="0px"
	 viewBox="0 0 22 22" style="enable-background:new 0 0 22 22;" xml:space="preserve">
<path d="M11,22C11,22,11,22,11,22C4.9,22,0,17.1,0,11C0,4.9,4.9,0,11,0c0,0,0,0,0,0c1.5,0,3.1,0.3,4.5,1C16,1.2,16.2,1.8,16,2.3
	c-0.2,0.5-0.8,0.7-1.3,0.5C13.5,2.3,12.3,2,11,2c0,0,0,0,0,0c-5,0-9,4-9,9c0,5,4,9,9,9c0,0,0,0,0,0c5,0,9-4,9-9v-0.9
	c0-0.6,0.4-1,1-1s1,0.4,1,1V11C22,17.1,17.1,22,11,22z"/>
<path d="M11,14c-0.3,0-0.5-0.1-0.7-0.3l-3-3c-0.4-0.4-0.4-1,0-1.4s1-0.4,1.4,0l2.3,2.3l9.3-9.3c0.4-0.4,1-0.4,1.4,0
	c0.4,0.4,0.4,1,0,1.4l-10,10C11.5,13.9,11.3,14,11,14z"/>
</svg>
