<?xml version="1.0" encoding="utf-8"?>
<!-- Generator: Adobe Illustrator 25.2.2, SVG Export Plug-In . SVG Version: 6.00 Build 0)  -->
<svg version="1.1" id="Layer_1" xmlns="http://www.w3.org/2000/svg" xmlns:xlink="http://www.w3.org/1999/xlink" x="0px" y="0px"
	 viewBox="0 0 22 22" style="enable-background:new 0 0 22 22;" xml:space="preserve">
<path d="M11,22C4.9,22,0,17.1,0,11S4.9,0,11,0s11,4.9,11,11S17.1,22,11,22z M11,2c-5,0-9,4-9,9c0,5,4,9,9,9c5,0,9-4,9-9
	C20,6,16,2,11,2z"/>
<path d="M9,16c-0.2,0-0.3,0-0.5-0.1C8.2,15.7,8,15.4,8,15V7c0-0.4,0.2-0.7,0.5-0.9c0.3-0.2,0.7-0.2,1,0l6,4c0.3,0.2,0.4,0.5,0.4,0.8
	s-0.2,0.6-0.4,0.8l-6,4C9.4,15.9,9.2,16,9,16z M10,8.9v4.3l3.2-2.1L10,8.9z"/>
</svg>
